:SAMPLES-PER-SECOND 30
:FULLY-SPECIFIED
:DEGREES
551
root  0.405531 34.0482 20.5191 4.52922 48.1615 -1.41817
LeftUpLeg  -8.57843 4.80942 6.39457
LeftLeg  12.4062 0.691049 0.104606
LeftFoot  0.421572 -0.00545814 -0.0337743
LeftToes  -22.545 1.92152e-006 4.03786e-008
Spine  1.93799 1.61821 1.12962
Spine1  3.61529 3.1553 2.3731
RightShoulder  0.0931602 5.116 7.50902
RightArm  -33.1958 -16.0042 71.5119
RightForeArm  32.3414 15.475 2.79142
RightHand  1.19741 -12.9541 -10.1429
LeftShoulder1  0.0469552 0.850059 -10.2554
LeftArm  -12.4754 12.5425 -71.879
LeftForeArm  26.6478 -15.7906 -2.85309
LeftHand  0.171534 5.36681 3.23508
HEad  -12.1209 33.8342 -6.99572
RightUpLeg  -7.99509 -8.64329 -2.8366
RightLeg  10.896 -10.7091 -1.34316
RightFoot  0.728677 0.00664731 -0.0969781
RightToes  -30.9972 -0.143075 -0.251111
552
root  0.418215 34.0464 20.5328 4.56679 48.2575 -1.43221
LeftUpLeg  -8.60858 4.65622 6.40357
LeftLeg  12.4003 0.756454 0.114563
LeftFoot  0.399055 -0.00547644 -0.0334899
LeftToes  -22.5162 1.92152e-006 4.03786e-008
Spine  1.96088 1.58141 1.12185
Spine1  3.66346 3.08241 2.357
RightShoulder  0.0933177 5.06123 7.58067
RightArm  -33.156 -16.117 71.7426
RightForeArm  32.3406 15.4809 2.79253
RightHand  1.19617 -12.9464 -10.1233
LeftShoulder1  0.0469552 0.841315 -10.2586
LeftArm  -12.3923 12.7034 -72.0043
LeftForeArm  26.6368 -15.7849 -2.85201
LeftHand  0.171126 5.39818 3.23832
HEad  -12.3555 33.8857 -6.98979
RightUpLeg  -8.01575 -8.7336 -2.82254
RightLeg  10.9375 -10.7124 -1.35141
RightFoot  0.687202 0.00611459 -0.0887062
RightToes  -31.0047 -0.143075 -0.251111
553
root  0.429497 34.0439 20.5436 4.57562 48.2723 -1.44467
LeftUpLeg  -8.62066 4.6468 6.41275
LeftLeg  12.4403 0.756374 0.115086
LeftFoot  0.362614 -0.00549471 -0.033206
LeftToes  -22.6251 1.92152e-006 4.03786e-008
Spine  1.97452 1.56983 1.11703
Spine1  3.69423 3.05897 2.34837
RightShoulder  0.0934541 5.02058 7.62548
RightArm  -33.1563 -16.2618 71.9417
RightForeArm  32.3404 15.4682 2.79013
RightHand  1.19389 -12.9574 -10.0952
LeftShoulder1  0.0469552 0.869371 -10.2599
LeftArm  -12.3499 12.8366 -72.1212
LeftForeArm  26.6217 -15.7383 -2.84315
LeftHand  0.171155 5.37669 3.2158
HEad  -12.4302 33.9341 -6.98658
RightUpLeg  -8.03207 -8.72972 -2.81385
RightLeg  10.9934 -10.7449 -1.36604
RightFoot  0.657389 0.00576156 -0.0832246
RightToes  -31.1719 -0.143075 -0.251111
554
root  0.440576 34.0433 20.553 4.57474 48.2842 -1.45516
LeftUpLeg  -8.6155 4.65243 6.42134
LeftLeg  12.4649 0.738884 0.112714
LeftFoot  0.324629 -0.00551292 -0.032923
LeftToes  -22.5904 1.92152e-006 4.03786e-008
Spine  1.9806 1.5633 1.11592
Spine1  3.71068 3.04566 2.34677
RightShoulder  0.0935705 4.97457 7.65149
RightArm  -33.1888 -16.4102 72.1197
RightForeArm  32.3419 15.4367 2.78415
RightHand  1.19445 -12.9525 -10.1272
LeftShoulder1  0.0469552 0.903409 -10.2443
LeftArm  -12.3299 12.9611 -72.2224
LeftForeArm  26.6295 -15.7117 -2.83811
LeftHand  0.171162 5.38171 3.22223
HEad  -12.4185 33.9949 -6.98404
RightUpLeg  -8.04506 -8.69811 -2.81025
RightLeg  11.0688 -10.7811 -1.38492
RightFoot  0.611975 0.00522964 -0.0749651
RightToes  -31.1473 -0.143075 -0.251111
555
root  0.450473 34.0427 20.5591 4.56656 48.3092 -1.45958
LeftUpLeg  -8.60689 4.65505 6.4223
LeftLeg  12.4915 0.713556 0.109137
LeftFoot  0.284141 -0.00553107 -0.032641
LeftToes  -22.5279 1.92152e-006 4.03786e-008
Spine  1.97197 1.55052 1.11641
Spine1  3.69671 3.01949 2.34819
RightShoulder  0.0936594 4.93403 7.6695
RightArm  -33.1863 -16.5817 72.2436
RightForeArm  32.3763 15.4051 2.77815
RightHand  1.19457 -12.9383 -10.1308
LeftShoulder1  0.0469552 0.967127 -10.2556
LeftArm  -12.326 13.0723 -72.2687
LeftForeArm  26.6685 -15.6994 -2.83575
LeftHand  0.171123 5.38873 3.22718
HEad  -12.4263 34.0457 -6.93568
RightUpLeg  -8.04579 -8.70423 -2.81213
RightLeg  11.1364 -10.7941 -1.39943
RightFoot  0.555539 0.00454253 -0.0642961
RightToes  -31.0171 -0.143075 -0.251111
556
root  0.458128 34.0421 20.5632 4.55066 48.3375 -1.46165
LeftUpLeg  -8.59686 4.63996 6.42095
LeftLeg  12.5185 0.6979 0.107044
LeftFoot  0.257393 -0.00554913 -0.0323604
LeftToes  -22.5121 1.92152e-006 4.03786e-008
Spine  1.9538 1.53501 1.11767
Spine1  3.66299 2.98737 2.351
RightShoulder  0.0936575 4.93876 7.66866
RightArm  -33.154 -16.7849 72.3116
RightForeArm  32.4503 15.3848 2.77424
RightHand  1.19243 -12.9633 -10.0919
LeftShoulder1  0.0469552 1.01618 -10.2689
LeftArm  -12.3354 13.183 -72.2666
LeftForeArm  26.6832 -15.6959 -2.83508
LeftHand  0.171434 5.3865 3.24965
HEad  -12.3627 34.1259 -6.87889
RightUpLeg  -8.0308 -8.77211 -2.81927
RightLeg  11.1717 -10.7483 -1.40026
RightFoot  0.518442 0.00406111 -0.0568209
RightToes  -30.9685 -0.143075 -0.251111
557
root  0.461472 34.042 20.5635 4.53986 48.3427 -1.46085
LeftUpLeg  -8.58675 4.6364 6.41924
LeftLeg  12.531 0.697897 0.105742
LeftFoot  0.243693 -0.00556709 -0.0320813
LeftToes  -22.4996 1.92152e-006 4.03786e-008
Spine  1.93902 1.53023 1.11887
Spine1  3.63472 2.97732 2.35358
RightShoulder  0.0936463 4.95936 7.65972
RightArm  -33.1196 -16.8883 72.3188
RightForeArm  32.5042 15.3525 2.76808
RightHand  1.18503 -12.8958 -10.0818
LeftShoulder1  0.0469552 1.01673 -10.2731
LeftArm  -12.326 13.2476 -72.2451
LeftForeArm  26.6688 -15.6967 -2.83524
LeftHand  0.171948 5.36528 3.26654
HEad  -12.2168 34.1308 -6.77988
RightUpLeg  -8.01803 -8.78355 -2.82514
RightLeg  11.1818 -10.7513 -1.40257
RightFoot  0.522523 0.00412234 -0.0577717
RightToes  -31.0088 -0.143075 -0.251111
